<?xml version="1.0" encoding="utf-8"?>
<!-- Generator: Adobe Illustrator 25.2.1, SVG Export Plug-In . SVG Version: 6.00 Build 0)  -->
<svg version="1.1" id="Layer_1" xmlns="http://www.w3.org/2000/svg" xmlns:xlink="http://www.w3.org/1999/xlink" x="0px" y="0px"
	 viewBox="0 0 500 500" style="enable-background:new 0 0 500 500;" xml:space="preserve">
<style type="text/css">
	.st0{fill:#F89927;}
	.st1{fill:#29B258;}
	.st2{fill:#ED1B2E;}
</style>
<path class="st0" d="M258.78,164.12c-118.1,0-214.6,85.7-220.9,193.6c-0.4,6.2,4.5,11.4,10.7,11.4h420.5c6.2,0,11-5.2,10.7-11.4
	C473.38,249.82,376.88,164.12,258.78,164.12z"/>
<path class="st1" d="M37.78,357.72c-0.1,1,0,2,0.2,3c-0.5,0-1,0.1-1.5,0.1c-24.3,1.1,14.9-20.8-12.5-63.9
	c-24.1-37.7,23.4-48.5,54.3-46.5C54.78,281.02,40.18,317.82,37.78,357.72z M130.18,198.52c1.2,0.5,2.3,1,3.5,1.5
	c20.9-13.3,44.3-23.3,69.5-29.3c-6.2-2.3-13-6-20.1-12.2C151.68,131.52,134.48,168.42,130.18,198.52z M457.78,279.42
	c12.6,23.9,20.3,50.3,21.9,78.3c0,0.7,0,1.5-0.1,2.2c1.3-0.9,2.6-2.5,3.7-5C494.58,329.72,500.58,267.32,457.78,279.42z
	 M335.48,162.02c-8.9-0.2-10.1,4.8-7.9,12.2c24.3,7.4,46.8,18.5,66.6,32.8l-1.1-2.3c-1.2-2.6,1.2-6.3,5.1-7.5
	c0.7-0.2,1.4-0.4,2.2-0.6C396.48,175.32,356.68,162.52,335.48,162.02z"/>
<path class="st2" d="M332.58,162.12c-6.2,0.9-7,5.5-5,12.1c-21.7-6.6-44.8-10.1-68.9-10.1c-19.2,0-37.8,2.3-55.6,6.5
	c-1.8-0.7-3.7-1.5-5.7-2.4c11.2-19.3,35.6-33.6,64.6-35.5C292.48,130.72,319.58,142.92,332.58,162.12z M98.68,196.12
	c-25.2,5.9-42,29.1-42,55c7.4-0.9,14.9-1.1,21.6-0.7c15.1-19.7,33.9-36.8,55.4-50.5C123.08,194.92,110.88,193.32,98.68,196.12z
	 M468.48,229.22c-12.9-27.3-43.2-40.5-70.3-32.1c-3.9,1.2-6.3,4.9-5.1,7.5l1.1,2.3c26.7,19.2,48.6,44,63.6,72.4
	c4.6-1.3,8.7-1.7,12.2-1.4C476.08,262.92,476.08,245.32,468.48,229.22z"/>
</svg>
